<svg viewBox="-10.262626262626327 128.5625 2052.525252525252 1928.4375" xmlns="http://www.w3.org/2000/svg" xmlns:blush="http://design.blush" overflow="visible" xmlns:xlink="http://www.w3.org/1999/xlink" width="2052.525252525252px" height="1928.4375px"><g id="Master/Spot Ilustrations/UI Windows" stroke="none" stroke-width="1" fill="none" fill-rule="evenodd" blush:viewBox="-12.340080971659972 133.70500000000015 2056.68016194332 1923.2949999999994" blush:i="0"><g id="Outdoor Plants" transform="translate(1183.000000, 1085.000000) scale(1 1)" blush:width="751" blush:height="965" blush:component="Outdoor Plants" blush:i="0.0" blush:value="Plant 1" blush:viewBox="1.4479434447300719 207.47500000000002 752.9305912596402 762.3499999999999"><g id="Outdoor Plants/Plant 1" stroke="none" stroke-width="1" fill="none" fill-rule="evenodd" blush:viewBox="1.4479434447300719 207.47500000000002 752.9305912596402 762.3499999999999" blush:i="0.0.0"><g id="Group-6" transform="translate(3.000000, 208.000000)" blush:i="0.0.0.0"><path d="M199.883326,757 C199.883326,757 154.639614,615.704437 63.7021884,486.352218 C-27.2352371,357 -13.9695544,268.907181 63.7021884,246.214912 C141.373931,223.522642 267.592553,290.509829 306.646043,382.031679 C331.898655,441.210897 374.804123,628.371706 268.960535,757 C238.721051,756.165996 199.883326,757 199.883326,757 Z" id="Stroke-8" fill="#017C7F" blush:i="0.0.0.0.0"/><path d="M180.80074,266.460237 C125.13078,13.4204746 221.50036,-21.2992546 328.620701,9.33958092 C435.741041,39.9784164 507.960342,173.305169 491.620701,300.677192 C466.681525,495.084959 320.447913,757 320.447913,757 L236.4707,757 C236.4707,598.666667 217.914047,435.153412 180.80074,266.460237 Z" id="Stroke-10" fill="#009BA0" blush:i="0.0.0.0.1"/><path d="M299.869545,92.3392506 C301.326008,91.6825172 303.029928,92.2842179 303.76044,93.6823222 L303.857175,93.8846724 L304.316098,94.9397143 L304.887232,96.295742 C305.10977,96.8312409 305.345953,97.4073406 305.595259,98.0239333 L305.978996,98.9791786 C307.658678,103.18678 309.527498,108.198532 311.537907,114.004614 C317.270818,130.561319 322.999418,150.177346 328.343248,172.774008 C340.981111,226.213867 349.496836,287.717379 351.998041,356.891597 C354.239813,418.890863 350.075029,478.447706 339.405709,544.65636 L339.021897,547.023799 C329.749389,603.877937 316.614263,662.450624 292.750418,757.276586 C292.346063,758.883341 290.715735,759.858079 289.10898,759.453724 C287.502225,759.049369 286.527487,757.419042 286.931842,755.812287 L289.047362,747.388625 C311.539988,657.63471 324.138912,601.00352 333.100137,546.058001 C343.991922,479.275307 348.255457,419.431969 346.001959,357.108403 C343.515192,288.333464 335.05336,227.219184 322.504303,174.154847 L321.81134,171.250364 C316.714465,150.074656 311.289348,131.624212 305.868175,115.96781 L305.247809,114.188627 C303.503926,109.222351 301.87886,104.891689 300.406603,101.203688 L299.855033,99.8349225 C299.678602,99.4014064 299.50967,98.9906447 299.348457,98.6026828 L298.799647,97.2995385 L298.367875,96.3072458 C297.686818,94.7968393 298.359139,93.0203074 299.869545,92.3392506 Z" id="Path-6" fill="#090E2B" fill-rule="nonzero" blush:i="0.0.0.0.2"/><path d="M589.575739,282.556489 C750.420208,274.363901 760.643075,407.886816 739.778496,462.864438 C715.162837,527.72606 641.307604,570.960237 582.304218,596.642758 C443.495397,657.062349 408.155852,757 408.155852,757 L286.620701,757 C286.620701,757 309.812449,296.806189 589.575739,282.556489 Z" id="Stroke-12" fill="#FFB201" blush:i="0.0.0.0.3"/><path d="M613.533995,384.77167 C615.068698,384.147289 616.818982,384.88525 617.443363,386.419953 C618.067745,387.954656 617.329784,389.70494 615.795081,390.329322 C475.369379,447.460406 387.980539,569.583887 353.571426,757.085934 C353.272365,758.715574 351.708844,759.794222 350.079203,759.495162 C348.449563,759.196101 347.370914,757.63258 347.669975,756.002939 C382.426899,566.605602 471.067283,442.733123 613.533995,384.77167 Z" id="Path-3" fill="#090E2B" fill-rule="nonzero" blush:i="0.0.0.0.4"/></g></g></g><g id="Chair" transform="translate(76.125000, 1255.000000) scale(1 1)" blush:width="700" blush:height="800" blush:component="Chair" blush:i="0.1" blush:value="Tall Chair 2" blush:viewBox="150.22831050228308 168 403.5388127853881 631.9999999999999"><g id="Chair/Tall Chair 2" stroke="none" stroke-width="1" fill="none" fill-rule="evenodd" blush:viewBox="150.22831050228308 168 403.5388127853881 631.9999999999999" blush:i="0.1.0"><g id="Group" transform="translate(150.000000, 169.000000)" blush:i="0.1.0.0"><path d="M322.77787,249.880468 C322.347405,248.021078 320.683897,246.630108 318.692311,246.622411 L318.658182,246.622411 L156.340052,245.99972 L156.32574,245.99972 C154.122775,245.990152 152.127886,247.502075 151.614851,249.737523 L74.0695961,627.630966 C73.7349127,629.095607 74.638778,630.563547 76.1052196,630.917612 C77.5826705,631.273876 79.0700298,630.367822 79.4278327,628.892185 L160.163589,255.682956 L315.32566,255.088083 L395.570401,628.892185 C395.922699,630.356826 397.393544,631.269478 398.866592,630.928608 C400.348446,630.586639 401.271027,629.111001 400.928637,627.630966 L322.77787,249.880468 Z" id="Fill-4" fill="#090E2B" blush:i="0.1.0.0.0"/><path d="M265.77787,249.880468 C265.347405,248.021078 263.683897,246.630108 261.692311,246.622411 L261.658182,246.622411 L99.3400519,245.99972 L99.3257398,245.99972 C97.1227746,245.990152 95.1278856,247.502075 94.6148512,249.737523 L17.0695961,627.630966 C16.7349127,629.095607 17.638778,630.563547 19.1052196,630.917612 C20.5826705,631.273876 22.0700298,630.367822 22.4278327,628.892185 L103.163589,255.682956 L258.32566,255.088083 L338.570401,628.892185 C338.922699,630.356826 340.393544,631.269478 341.866592,630.928608 C343.348446,630.586639 344.271027,629.111001 343.928637,627.630966 L265.77787,249.880468 Z" id="Fill-4-Copy" fill="#090E2B" blush:i="0.1.0.0.1"/><path d="M58.1921488,41.2196463 C66.3085398,81.4190302 112.030062,206.924243 136.697616,221.042896 C161.365171,235.160391 305.423549,232.409824 322.322031,233.819837 C339.220514,235.231007 357.527877,245.104572 354.711271,263.44053 C351.894665,281.777645 344.853727,276.135278 295.566004,276.135278 C246.278282,276.135278 130.805511,276.954891 130.805511,276.954891 C130.805511,276.954891 71.0083919,280.665147 46.3951587,220.787056 C23.8530616,165.945883 3.90856718,64.7475273 1.09196081,46.4104117 C-1.72348979,28.0732961 0.311817478,5.58486122 14.2642476,1.0202623 C24.8279662,-2.43531157 50.0757579,1.0202623 58.1921488,41.2196463 Z" id="Fill-1" fill="#008BF2" blush:i="0.1.0.0.2"/></g></g></g><g id="Floor" transform="translate(1016.500000, 2051.750000) scale(1, -1) translate(-1016.500000, -2051.750000) translate(0.000000, 2050.250000)" fill="#090E2B" fill-rule="nonzero" blush:i="0.2"><path d="M0.625861326,-1.99999989 L1016.50086,-1.74999989 C1018.43386,-1.7495242 1020,-0.182135239 1020,1.75086133 C1020,3.61942467 1018.53489,5.14562732 1016.69118,5.24486829 L1016.49914,5.24999989 L0.624138674,5.00000011 C-1.30885789,4.9995242 -2.875,3.43213524 -2.875,1.49913867 C-2.875,-0.369424673 -1.40988682,-1.89562732 0.433824855,-1.99486829 L0.625861326,-1.99999989 Z" id="Path-4-Copy" blush:i="0.2.0"/><path d="M2032.5,-2.75 C2034.433,-2.75 2036,-1.18299662 2036,0.75 C2036,2.6185634 2034.53572,4.14512645 2032.69204,4.24482114 L2032.5,4.25 L1339.5,4.25 C1337.567,4.25 1336,2.68299662 1336,0.75 C1336,-1.1185634 1337.46428,-2.64512645 1339.30796,-2.74482114 L1339.5,-2.75 L2032.5,-2.75 Z" id="Path-4-Copy-2" blush:i="0.2.1"/></g><g id="UI Elements" transform="translate(282.000000, 117.000000) scale(1 1)" blush:width="1101" blush:height="811" blush:component="UI Elements" blush:i="0.3" blush:value="UI Card 1" blush:viewBox="0 14.324728260869506 1100.9999999999998 798.8790760869566"><g id="UI Elements/UI Card 1" stroke="none" stroke-width="1" fill="none" fill-rule="evenodd" blush:viewBox="0 14.324728260869506 1100.9999999999998 798.8790760869566" blush:i="0.3.0"><g id="userinterface" transform="translate(1.000000, 17.000000)" blush:i="0.3.0.0"><path d="M1072.3832,793.4326 L68.6102,793.4326 C55.8452,793.4326 45.4982,783.0856 45.4982,770.3206 L45.4982,61.6156 C45.4982,48.8506 55.8452,38.5006 68.6102,38.5006 L1072.3832,38.5006 C1085.1482,38.5006 1095.4952,48.8506 1095.4952,61.6156 L1095.4952,770.3206 C1095.4952,783.0856 1085.1482,793.4326 1072.3832,793.4326 Z" id="Stroke-1-Copy" fill="#090E2B" blush:i="0.3.0.0.0"/><path d="M1029.885,757.932 L26.112,757.932 C13.347,757.932 3,747.585 3,734.82 L3,26.115 C3,13.35 13.347,3 26.112,3 L1029.885,3 C1042.65,3 1052.997,13.35 1052.997,26.115 L1052.997,734.82 C1052.997,747.585 1042.65,757.932 1029.885,757.932 Z" id="Stroke-1" fill="#FFF" blush:i="0.3.0.0.1"/><path d="M1029.885,4.54747351e-13 L26.112,4.54747351e-13 C11.6905975,4.54747351e-13 0,11.6926939 0,26.115 L0,734.82 C0,749.241854 11.6901458,760.932 26.112,760.932 L1029.885,760.932 C1044.30685,760.932 1055.997,749.241854 1055.997,734.82 L1055.997,26.115 C1055.997,11.6926939 1044.3064,4.54747351e-13 1029.885,4.54747351e-13 Z M26.112,6 L1029.885,6 C1040.99245,6 1049.997,15.0061616 1049.997,26.115 L1049.997,734.82 C1049.997,745.928146 1040.99315,754.932 1029.885,754.932 L26.112,754.932 C15.0038542,754.932 6,745.928146 6,734.82 L6,26.115 C6,15.0061616 15.0045468,6 26.112,6 Z" id="Stroke-1-Copy-2" fill="#090E2B" fill-rule="nonzero" blush:i="0.3.0.0.2"/><path d="M617.1762,372.0626 L197.7822,372.0626 C160.6212,372.0626 130.4982,341.9396 130.4982,304.7786 C130.4982,267.6236 160.6212,237.5006 197.7822,237.5006 L617.1762,237.5006 C654.3342,237.5006 684.4572,267.6236 684.4572,304.7786 C684.4572,341.9396 654.3342,372.0626 617.1762,372.0626 Z" id="Stroke-5" fill="#FFB201" blush:i="0.3.0.0.3"/><path d="M854.382,370.2114 L854.382,370.2114 C817.224,370.2114 787.098,340.0884 787.098,302.9274 C787.098,265.7724 817.224,235.6494 854.382,235.6494 C891.54,235.6494 921.663,265.7724 921.663,302.9274 C921.663,340.0884 891.54,370.2114 854.382,370.2114 Z" id="Stroke-7" fill="#C7D2F2" blush:i="0.3.0.0.4"/><g id="cross" transform="translate(945.572500, 53.129500)" fill="#000" fill-rule="nonzero" blush:i="0.3.0.0.5"><path d="M43.8180195,1.81801948 C45.5753788,0.0606601718 48.4246212,0.0606601718 50.1819805,1.81801948 C51.8844223,3.52046132 51.9376237,6.24760984 50.3415844,8.01409585 L50.1819805,8.18198052 L8.18198052,50.1819805 C6.4246212,51.9393398 3.5753788,51.9393398 1.81801948,50.1819805 C0.11557765,48.4795387 0.062376343,45.7523902 1.65841556,43.9859042 L1.81801948,43.8180195 L43.8180195,1.81801948 Z" id="Stroke-9" blush:i="0.3.0.0.5.0"/><path d="M1.81801948,1.81801948 C3.52046132,0.11557765 6.24760984,0.062376343 8.01409585,1.65841556 L8.18198052,1.81801948 L50.1819805,43.8180195 C51.9393398,45.5753788 51.9393398,48.4246212 50.1819805,50.1819805 C48.4795387,51.8844223 45.7523902,51.9376237 43.9859042,50.3415844 L43.8180195,50.1819805 L1.81801948,8.18198052 C0.0606601718,6.4246212 0.0606601718,3.5753788 1.81801948,1.81801948 Z" id="Stroke-11" blush:i="0.3.0.0.5.1"/></g><path d="M727.2462,457.5006 C737.187325,457.5006 745.2462,465.559475 745.2462,475.5006 C745.2462,485.331269 737.365417,493.321282 727.576865,493.497624 L727.2462,493.5006 L148.4982,493.5006 C138.557075,493.5006 130.4982,485.441725 130.4982,475.5006 C130.4982,465.669931 138.378983,457.679918 148.167535,457.503576 L148.4982,457.5006 L727.2462,457.5006 Z" id="Stroke-13" fill="#C7D2F2" fill-rule="nonzero" blush:i="0.3.0.0.6"/><path d="M479.0502,564.5006 C488.991325,564.5006 497.0502,572.559475 497.0502,582.5006 C497.0502,592.331269 489.169417,600.321282 479.380865,600.497624 L479.0502,600.5006 L148.4982,600.5006 C138.557075,600.5006 130.4982,592.441725 130.4982,582.5006 C130.4982,572.669931 138.378983,564.679918 148.167535,564.503576 L148.4982,564.5006 L479.0502,564.5006 Z" id="Stroke-15" fill="#C7D2F2" fill-rule="nonzero" blush:i="0.3.0.0.7"/></g></g></g><g id="UI Elements" transform="translate(833.000000, 623.000000) scale(1 1)" blush:width="1101" blush:height="811" blush:component="UI Elements" blush:i="0.4" blush:value="UI Card 1" blush:viewBox="0 14.324728260869506 1100.9999999999998 798.8790760869566"><g id="UI Elements/UI Card 1" stroke="none" stroke-width="1" fill="none" fill-rule="evenodd" blush:viewBox="0 14.324728260869506 1100.9999999999998 798.8790760869566" blush:i="0.4.0"><g id="userinterface" transform="translate(1.000000, 17.000000)" blush:i="0.4.0.0"><path d="M1072.3832,793.4326 L68.6102,793.4326 C55.8452,793.4326 45.4982,783.0856 45.4982,770.3206 L45.4982,61.6156 C45.4982,48.8506 55.8452,38.5006 68.6102,38.5006 L1072.3832,38.5006 C1085.1482,38.5006 1095.4952,48.8506 1095.4952,61.6156 L1095.4952,770.3206 C1095.4952,783.0856 1085.1482,793.4326 1072.3832,793.4326 Z" id="Stroke-1-Copy" fill="#090E2B" blush:i="0.4.0.0.0"/><path d="M1029.885,757.932 L26.112,757.932 C13.347,757.932 3,747.585 3,734.82 L3,26.115 C3,13.35 13.347,3 26.112,3 L1029.885,3 C1042.65,3 1052.997,13.35 1052.997,26.115 L1052.997,734.82 C1052.997,747.585 1042.65,757.932 1029.885,757.932 Z" id="Stroke-1" fill="#FFF" blush:i="0.4.0.0.1"/><path d="M1029.885,4.54747351e-13 L26.112,4.54747351e-13 C11.6905975,4.54747351e-13 0,11.6926939 0,26.115 L0,734.82 C0,749.241854 11.6901458,760.932 26.112,760.932 L1029.885,760.932 C1044.30685,760.932 1055.997,749.241854 1055.997,734.82 L1055.997,26.115 C1055.997,11.6926939 1044.3064,4.54747351e-13 1029.885,4.54747351e-13 Z M26.112,6 L1029.885,6 C1040.99245,6 1049.997,15.0061616 1049.997,26.115 L1049.997,734.82 C1049.997,745.928146 1040.99315,754.932 1029.885,754.932 L26.112,754.932 C15.0038542,754.932 6,745.928146 6,734.82 L6,26.115 C6,15.0061616 15.0045468,6 26.112,6 Z" id="Stroke-1-Copy-2" fill="#090E2B" fill-rule="nonzero" blush:i="0.4.0.0.2"/><path d="M617.1762,372.0626 L197.7822,372.0626 C160.6212,372.0626 130.4982,341.9396 130.4982,304.7786 C130.4982,267.6236 160.6212,237.5006 197.7822,237.5006 L617.1762,237.5006 C654.3342,237.5006 684.4572,267.6236 684.4572,304.7786 C684.4572,341.9396 654.3342,372.0626 617.1762,372.0626 Z" id="Stroke-5" fill="#FFB201" blush:i="0.4.0.0.3"/><path d="M854.382,370.2114 L854.382,370.2114 C817.224,370.2114 787.098,340.0884 787.098,302.9274 C787.098,265.7724 817.224,235.6494 854.382,235.6494 C891.54,235.6494 921.663,265.7724 921.663,302.9274 C921.663,340.0884 891.54,370.2114 854.382,370.2114 Z" id="Stroke-7" fill="#C7D2F2" blush:i="0.4.0.0.4"/><g id="cross" transform="translate(945.572500, 53.129500)" fill="#000" fill-rule="nonzero" blush:i="0.4.0.0.5"><path d="M43.8180195,1.81801948 C45.5753788,0.0606601718 48.4246212,0.0606601718 50.1819805,1.81801948 C51.8844223,3.52046132 51.9376237,6.24760984 50.3415844,8.01409585 L50.1819805,8.18198052 L8.18198052,50.1819805 C6.4246212,51.9393398 3.5753788,51.9393398 1.81801948,50.1819805 C0.11557765,48.4795387 0.062376343,45.7523902 1.65841556,43.9859042 L1.81801948,43.8180195 L43.8180195,1.81801948 Z" id="Stroke-9" blush:i="0.4.0.0.5.0"/><path d="M1.81801948,1.81801948 C3.52046132,0.11557765 6.24760984,0.062376343 8.01409585,1.65841556 L8.18198052,1.81801948 L50.1819805,43.8180195 C51.9393398,45.5753788 51.9393398,48.4246212 50.1819805,50.1819805 C48.4795387,51.8844223 45.7523902,51.9376237 43.9859042,50.3415844 L43.8180195,50.1819805 L1.81801948,8.18198052 C0.0606601718,6.4246212 0.0606601718,3.5753788 1.81801948,1.81801948 Z" id="Stroke-11" blush:i="0.4.0.0.5.1"/></g><path d="M727.2462,457.5006 C737.187325,457.5006 745.2462,465.559475 745.2462,475.5006 C745.2462,485.331269 737.365417,493.321282 727.576865,493.497624 L727.2462,493.5006 L148.4982,493.5006 C138.557075,493.5006 130.4982,485.441725 130.4982,475.5006 C130.4982,465.669931 138.378983,457.679918 148.167535,457.503576 L148.4982,457.5006 L727.2462,457.5006 Z" id="Stroke-13" fill="#C7D2F2" fill-rule="nonzero" blush:i="0.4.0.0.6"/><path d="M479.0502,564.5006 C488.991325,564.5006 497.0502,572.559475 497.0502,582.5006 C497.0502,592.331269 489.169417,600.321282 479.380865,600.497624 L479.0502,600.5006 L148.4982,600.5006 C138.557075,600.5006 130.4982,592.441725 130.4982,582.5006 C130.4982,572.669931 138.378983,564.679918 148.167535,564.503576 L148.4982,564.5006 L479.0502,564.5006 Z" id="Stroke-15" fill="#C7D2F2" fill-rule="nonzero" blush:i="0.4.0.0.7"/></g></g></g><g transform="translate(-67.000000, 557.000000) scale(1 1)" blush:has-customizable-colors="true" blush:width="1110" blush:height="1500" id="Master/Character/Sitting" blush:component="Master/Character/Sitting" blush:i="0.5" blush:value="Sitting" blush:viewBox="300 397.5 674.9999999999999 1102.4999999999998"><g id="Master/Character/Sitting" stroke="none" stroke-width="1" fill="none" fill-rule="evenodd" blush:has-customizable-colors="true" blush:viewBox="300 397.5 674.9999999999999 1102.4999999999998" blush:i="0.5.0"><g id="Sitting" transform="translate(179.000000, 940.000000) scale(1 1)" blush:width="752" blush:height="560" blush:component="Sitting" blush:i="0.5.0.0" blush:value="On Chair 2" blush:viewBox="176.72000000000003 -36.12903225806457 616.6399999999999 594.6236559139786"><g id="Sitting/On Chair 2" stroke="none" stroke-width="1" fill="none" fill-rule="evenodd" blush:viewBox="176.72000000000003 -36.12903225806457 616.6399999999999 594.6236559139786" blush:i="0.5.0.0.0"><path d="M410.615323,399.49997 C410.615323,399.49997 400.357969,471.949685 396.171539,502.905682 C391.949971,534.125643 467.0487,503.736716 467.0487,503.736716 C467.0487,503.736716 453.509565,484.44329 453.304761,479.157997 C453.100961,473.870697 476.218696,412 476.218696,412 L410.615323,399.49997 Z" id="Fill-3" fill="#ff8282" blush:color="Skin-500" blush:i="0.5.0.0.0.0"/><path d="M561.035706,7.46069873e-14 C597.897949,16.8477074 635.153618,59.3884812 602.589029,139.128809 C570.024441,218.869137 493.394303,411.87247 481.349448,420.555326 C469.305594,429.239182 405.784608,412 405.784608,412 C405.784608,412 412.732597,330.944505 426.534884,251.242608 C436.641716,192.880271 457.952435,150.325862 457.952435,150.325862 C457.952435,150.325862 286.540837,174.784268 243.98254,146.076381 C188.124727,108.397247 229.480836,6.86053872 261.586066,-5.71064401 C302.858588,-21.8713886 490.854841,-32.0758202 561.035706,7.46069873e-14 Z" id="Fill-5" fill="#090E2B" blush:i="0.5.0.0.0.1"/><path d="M559.105053,537.550495 C553.718837,520.869499 514.662001,509.852921 486.4598,501.514412 C476.966506,498.70607 463.702961,484.835405 457.545853,485.001479 C448.581857,485.24512 457.367415,503.898122 427.362791,502.274176 C419.4193,501.844571 418.851908,493.484184 401.591555,491.580796 C398.786673,491.272515 394.499152,490.727553 390.796066,497.394383 C388.732001,501.110663 380.282268,534.66359 388.577622,548.345309 C446.664152,549.845942 506.41276,548.363209 558.020392,547.881892 C563.059757,547.834159 560.482433,541.818697 559.105053,537.550495" id="Fill-17" fill="#FF0057" blush:i="0.5.0.0.0.2"/><path d="M654.970564,412 C654.970564,412 665.530533,466.509706 672.596211,475.377601 C679.662889,484.243493 716.32892,494.221378 717.974942,499.698195 C719.618961,505.175012 639.820958,518 639.820958,518 L591,416.698422 L654.970564,412 Z" id="Fill-1" fill="#ff8282" blush:color="Skin-500" blush:i="0.5.0.0.0.3"/><path d="M790.105053,534.5497 C784.718837,517.869641 745.662001,506.853025 717.4598,498.513492 C707.966506,495.706135 694.702961,481.834427 688.545853,482.001496 C679.581857,482.244144 688.367415,500.898205 658.362791,499.274253 C650.420302,498.844647 649.85291,490.483237 632.591555,488.580837 C629.786673,488.27156 625.499152,487.727591 621.796066,494.393449 C619.732001,498.109742 611.282268,531.662786 619.577622,545.345546 C677.664152,546.846185 737.41276,545.362452 789.020392,544.881134 C794.059757,544.8334 791.482433,538.817918 790.105053,534.5497" id="Fill-10" fill="#FF0057" blush:i="0.5.0.0.0.4"/><path d="M722.704751,510.429527 C726.392384,503.004274 728.005104,501.713139 726.433049,500.543939 C722.673012,497.748284 703.571309,506.385021 702.069675,511.523009 C700.944937,515.373796 713.664197,504.228541 723.820563,502.565701 C719.658833,506.366337 715.778784,518.019983 719.874061,515.696334 C739.826756,504.381943 742.973841,507.006496 742.998637,506.585624 C743.116665,504.585496 735.565843,502.966906 722.704751,510.429527" id="Fill-15" fill="#FFB201" blush:i="0.5.0.0.0.5"/><path d="M180.126096,77 C192.090433,138.955221 247.290014,161.21191 295.189049,159.361921 C368.355288,156.536045 442.938988,124.042498 468.151215,113.183029 C465.930109,129.164147 477.804596,220.024734 497.628146,262.074146 C517.451696,304.123559 582.008895,430.623213 582.008895,430.623213 C582.008895,430.623213 654.850327,431.050084 657.965073,413.369038 C660.014248,401.737852 591.630112,76.8494703 569.008895,20.5961921 C556.018259,-11.7082512 513.975789,-25.6487365 427.5,-33 C340.646127,-40.3834042 214.030282,-26.7715765 214.030282,-26.7715765 C214.030282,-26.7715765 168.16176,15.0447792 180.126096,77 Z" id="Fill-7" fill="#090E2B" blush:i="0.5.0.0.0.6"/><path d="M491.704751,514.429893 C495.392384,507.004835 497.005104,505.713735 495.432058,504.543583 C491.67202,501.748984 472.571309,510.385493 471.069675,515.522362 C469.944937,519.373048 482.664197,508.228087 492.820563,506.566274 C488.658833,510.36681 484.777792,522.019165 488.874061,519.69656 C508.826756,508.381485 511.973841,511.005969 511.998637,510.585107 C512.116665,508.585032 504.565843,506.966486 491.704751,514.429893" id="Fill-22" fill="#FFB201" blush:i="0.5.0.0.0.7"/><path d="M546.8316,554.3915 L407.0166,556.8575 C397.6626,557.2315 383.6706,554.0145 382.3176,546.2435 C381.3066,540.4375 383.5546,527.7955 384.0206,526.9545 C387.2776,521.0945 415.0326,526.0385 423.1176,545.8275 C474.1316,549.6495 561.0086,545.9125 561.0086,545.9125 C561.0086,545.9125 562.3126,553.5935 546.8316,554.3915" id="Fill-19" fill="#090E2B" blush:i="0.5.0.0.0.8"/><path d="M777.7223,550.7851 L637.9073,553.2511 C628.5543,553.6251 614.5613,550.4091 613.2083,542.6381 C612.1983,536.8321 614.4453,524.1901 614.9123,523.3491 C618.1683,517.4891 645.9233,522.4331 654.0083,542.2221 C705.0223,546.0441 791.9003,542.3071 791.9003,542.3071 C791.9003,542.3071 793.2033,549.9881 777.7223,550.7851" id="Fill-12" fill="#090E2B" blush:i="0.5.0.0.0.9"/></g></g><g id="Upper Body/Sitting" transform="translate(243.000000, 170.000000) scale(1 1.0010526315789474)" blush:width="600" blush:height="951" blush:component="Upper Body/Sitting" blush:i="0.5.0.1" blush:value="Cross Hand 2" blush:viewBox="72.15189873417728 380 303.79746835443035 436.9999999999999"><g id="Upper Body/Sitting/Cross Hand 2" stroke="none" stroke-width="1" fill="none" fill-rule="evenodd" blush:viewBox="72.15189873417728 380 303.79746835443035 436.9999999999999" blush:i="0.5.0.1.0"><path d="M205.594359,437.099482 C198.459908,444.5 167.670927,448.026042 178.155878,460.00709 C192.434421,476.324894 234.954518,505 246.746408,505 C292.385174,505.002094 285.650251,451.419338 285.650251,451.419338 C285.650251,451.419338 269.97082,446.050683 267.409515,441.928566 C264.129025,436.648445 264.140591,419.73374 264.796689,405.549762 C265.453838,391.366832 208.697155,384 208.697155,384 C208.697155,384 208.593422,433.988575 205.594359,437.099482 Z" id="neck" fill="#ff8282" blush:color="Skin-500" blush:i="0.5.0.1.0.0"/><g id="tshirt" transform="translate(74.000000, 444.000000)" blush:i="0.5.0.1.0.1"><path d="M207.644654,4.69591742 C207.644654,4.69591742 205.480372,20.7431343 194.074479,36.6360674 C186.087062,47.7657081 173.521735,48.5418798 154.172693,36.6360674 C139.218146,27.4342663 117.359714,8.34743309 113.529314,0.28763309 C103.721993,4.27778837 32.4654428,21.8814084 32.4654428,57.7485691 C32.4654428,93.6157298 51.1817965,146.144412 51.1817965,164.239062 C51.1817965,182.334762 49.7050394,269.314529 39.5926119,308.165965 C28.5172376,350.716994 4.90444009,374.867968 44.4310617,370.648066 C83.9576833,366.428163 226,292.686018 255.585178,292.686018 C265.447815,292.686018 257.623948,271.374815 255.585178,239.263578 C287.331073,231.570394 293.695175,217.314215 295.730792,203.445793 C304.326187,144.886362 279.896587,98.5935238 262.256712,48.5418798 C253.015714,22.3213367 207.644654,4.69591742 207.644654,4.69591742 Z" id="Fill-4" fill="#3615F6" blush:i="0.5.0.1.0.1.0"/><path d="M247.676427,141.37167 C247.812927,142.23267 247.223877,143.04222 246.359727,143.17452 C245.485077,143.31102 244.666077,142.69152 244.557927,141.81372 L242.886327,128.42517 C241.901387,114.38199 242.478677,99.28032 242.837777,85.75107 C242.838827,84.93627 243.992777,87.09612 243.998027,87.93717 C244.019027,105.66327 244.838277,123.87972 247.676427,141.37167 Z" id="Fill-6" fill="#090E2B" blush:i="0.5.0.1.0.1.1"/><path d="M195.999512,155.144636 C195.999512,155.144636 219.774662,136.575386 226.169162,136.56564 C239.005412,136.547036 249.040262,141.001136 249.040262,141.001136 C249.040262,141.001136 261.842078,165.060727 259.372262,172.231286 C257.480828,177.72264 227.687502,173.253197 213.28281,181.201048 C202.649794,187.067861 196.888694,178.38239 195.999512,155.144636 Z" id="hand-2" fill="#ff8282" blush:color="Skin-500" blush:i="0.5.0.1.0.1.2"/><path d="M90.6061767,165.359865 C90.6061767,165.359865 160.167627,150.784815 184.018377,148.473765 C197.879427,147.131865 210.382827,179.501265 211.485327,187.584165 C212.585727,195.666015 145.030827,241.374615 90.6061767,252.034215 C29.4457767,264.014715 17.1832567,255.825086 2.44922669,199.845015 C-6.62731128,165.359865 22.0179143,75.168348 34.0962109,48.9302258 C44.4303865,26.4809213 103.011927,78.319065 103.011927,78.319065 L90.6061767,165.359865 Z" id="Fill-10" fill="#3615F6" blush:i="0.5.0.1.0.1.3"/><path d="M98.5997217,80.267235 C101.670972,102.660585 98.6658717,125.378385 94.7399217,147.489285 C94.3797717,149.483235 91.2255717,148.900485 91.6476717,146.886585 C95.2470717,130.555935 97.8237717,113.851485 98.3309217,97.108185 C98.4338217,91.532685 98.2910217,85.946685 97.6148217,80.413185 C97.5150717,79.798935 98.5115217,79.618335 98.5997217,80.267235" id="Fill-12" fill="#090E2B" blush:i="0.5.0.1.0.1.4"/><path d="M62.655763,148.723302 C71.310913,141.474102 75.1061763,140.024478 76.6118763,140.501178 C77.9989263,140.941128 75.7497267,137.21514 79.1401767,137.21514 C90.8844267,137.21514 99.5503435,143.348379 102.01248,145.271717 C109.356015,151.008241 113.11292,157.046162 116.56217,160.176212 C107.78522,162.209012 78.8808267,166.96479 78.8808267,166.96479 C78.8808267,166.96479 68.7073698,168.892461 65.7957198,165.463161 C63.8469198,163.167861 62.8002675,157.587908 62.655763,148.723302 Z" id="hand-1" fill="#ff8282" blush:color="Skin-500" blush:i="0.5.0.1.0.1.5"/><path d="M183.963357,146.64183 C197.193357,145.77348 211.352607,175.83918 213.419007,187.31463 C213.448407,187.48368 213.499857,188.02128 213.402207,188.31003 C210.870657,195.82803 195.803157,205.50168 189.497907,210.20148 C156.955257,231.22248 121.042107,249.13968 82.3989567,254.94618 C69.5763567,256.40883 55.1981286,257.715743 47.1645786,256.620593 C47.0816286,256.609043 47.4457889,256.362912 47.6988389,256.326162 C53.6869889,255.462012 56.6876067,255.24753 62.8553067,254.55138 C94.8939567,250.93098 125.753457,241.50618 154.112907,226.40928 C165.499107,220.48098 176.576607,213.94368 187.233057,206.83833 C194.729007,201.39513 203.767407,196.04958 208.979607,188.60508 C209.312457,188.13153 209.412207,187.52883 209.270457,186.96918 C206.480607,176.07648 200.983857,165.58278 194.115807,156.72918 C189.185007,150.90063 186.406707,149.34978 178.983207,150.94263 C157.146357,154.18083 133.909857,158.31468 112.113957,161.56863 C111.625707,161.66103 111.405207,160.84098 111.952257,160.73073 C135.795657,155.27283 159.718857,150.00498 183.963357,146.64183 Z" id="Fill-16" fill="#090E2B" blush:i="0.5.0.1.0.1.6"/><path d="M254.317231,239.96796 C226.60043,244.344932 188.952901,235.0043 166.745877,224.892135 C164.617527,223.850535 166.293327,220.503135 168.411177,221.627685 C187.194627,229.965735 207.28849,235.733025 228.053277,238.437135 C234.887727,239.565885 247.933826,239.288197 255.496679,239.288197 C255.925079,239.295547 255.37483,239.800947 254.317231,239.96796 Z" id="Fill-18" fill="#090E2B" blush:i="0.5.0.1.0.1.7"/></g></g></g><g id="Head" transform="translate(341.000000, 346.000000) scale(1 1)" blush:width="300" blush:height="300" blush:component="Head" blush:i="0.5.0.2" blush:value="Bob Gray" blush:viewBox="30.00000000000003 67.5 244.50000000000006 223.49999999999994"><g id="Head/Bob Gray" stroke="none" stroke-width="1" fill="none" fill-rule="evenodd" blush:viewBox="30.00000000000003 67.5 244.50000000000006 223.49999999999994" blush:i="0.5.0.2.0"><path d="M200.312971,280.831037 L199.0091,269.031172 L203.028919,280.831037 C203.028919,280.831037 272.0771,278.575911 273.1951,266.016847 C274.3131,253.457784 242.6101,197.287292 242.6101,161.552701 C243.277358,170.931064 260.891609,215.864447 266.217104,219.812973 C252.515374,196.698392 239.791189,130.063774 238.841508,125.071693 C234.91774,104.44608 233.705096,104.321796 228.770911,97.8722543 C221.012911,87.7330761 179.3731,65.8174703 166.3801,88.8751841 C152.8761,112.838131 170.5331,143.41152 166.3801,174.020024 C159.3711,225.661402 163.299225,269.031172 171.8301,282.6958 L200.312971,280.831037 Z" id="Fill-1" fill="#E3E4E6" blush:i="0.5.0.2.0.0"/><path d="M230.8389,97.6343 C230.8389,97.6343 238.0639,177.5813 238.0639,199.9423 C238.0639,222.3023 236.7369,248.7503 213.1079,256.4113 C187.8319,264.6073 137.3559,250.1773 126.1459,246.9403 C77.9229,233.0193 108.0249,135.0243 114.7329,102.6023 C121.4409,70.1793 230.8389,97.6343 230.8389,97.6343" id="Fill-3" fill="#ff8282" blush:color="Skin-500" blush:i="0.5.0.2.0.1"/><path d="M126.2676,148.6548 C126.2676,148.6548 118.4416,198.1448 126.2676,223.8588 C134.0936,249.5738 135.6756,280.546539 130.9716,287.3348 C126.2676,294.123061 109.348382,288.909511 96.5953269,288.7038 C84.5063209,288.5088 80.5752089,289.415175 78.4296,288.5088 C74.7606,282.8658 74.8386,273.0508 74.8386,273.0508 L74.8386,288.7038 C74.8386,288.7038 30.5292728,285.333758 30.5292728,262.271056 C30.5292728,253.031937 41.6180601,216.214548 53.1670161,177.382874 C66.1654325,133.677601 81.8808794,87.4207056 123.9716,75.0600229 C164.364651,63.1978909 210.215619,67.219891 229.733297,92.9883268 C245.797767,114.197626 235.50972,142.117953 235.50972,142.117953 C229.485526,140.42811 219.351296,139.583188 205.107029,139.583188 C195.288948,139.583188 180.653609,140.42811 161.201011,142.117953 L157.3686,117.0518 L157.3686,143.188942 L126.2676,148.6548 Z" id="Fill-5" fill="#E3E4E6" blush:i="0.5.0.2.0.2"/><path d="M142.6573,251.2876 C149.0663,252.9406 154.4483,253.7906 160.4163,255.0806 C161.2683,255.2656 162.7693,255.5526 162.9693,255.7186 C164.1853,256.7296 161.9683,257.8536 157.5003,256.9906 C150.9573,255.7256 140.4883,250.7276 142.6573,251.2876" id="Fill-8" fill="#000" blush:i="0.5.0.2.0.3"/></g></g><g id="Expressions" transform="translate(462.000000, 479.000000) scale(1 1)" blush:width="120" blush:height="120" blush:component="Expressions" blush:i="0.5.0.3" blush:value="Smile" blush:viewBox="21 10.200000000000003 89.4 88.80000000000001"><g id="Expressions/Smile" stroke="none" stroke-width="1" fill="none" fill-rule="evenodd" blush:viewBox="21 10.200000000000003 89.4 88.80000000000001" blush:i="0.5.0.3.0"><g id="eye1" transform="translate(21.027098, 10.213671)" blush:i="0.5.0.3.0.0"><path d="M0.0487023333,7.96572872 C1.82485498,-0.0171869856 25.1977023,-2.81531309 35.4827023,3.36568691 C39.0387023,5.47868691 45.6427023,11.2837287 39.7957023,14.4437287 C38.2517023,15.1157287 36.7517023,14.4267287 35.4827023,13.6077287 C21.4647023,3.86572872 -1.18942441,13.5304877 0.0487023333,7.96572872 Z" id="Fill-1" fill="#090E2B" blush:i="0.5.0.3.0.0.0"/><path d="M19.0113023,22.3973287 C13.7233023,23.8973287 9.19030233,28.1473287 8.76930233,31.6693287 C8.51430233,33.7973287 16.8643023,38.9063287 24.9173023,39.3033287 C35.5113023,39.8243287 40.8513023,34.0853287 40.8324531,32.2513287 C40.1193023,26.7013287 33.7283023,18.2233287 19.0113023,22.3973287 Z" id="Fill-6" fill="#FFF" blush:i="0.5.0.3.0.0.1"/><path d="M35.3981023,25.5550287 C27.2551023,19.4010287 14.6431023,23.4110287 8.76910233,31.6690287 C8.43210233,32.0970287 8.52910233,31.0200287 8.76310233,30.5290287 C11.5971023,24.5820287 16.7101023,21.7750287 22.6381023,20.5510287 C26.2051023,19.8140287 29.5311023,19.7540287 33.0101023,21.3120287 C34.3551023,21.9130287 36.7311023,23.7450287 38.5671023,25.8170287 C39.9991023,27.4320287 41.2051023,30.2010287 39.5481023,29.2220287 C38.2511023,28.4550287 36.4781023,26.3720287 35.3981023,25.5550287 Z" id="Fill-8" fill="#090E2B" blush:i="0.5.0.3.0.0.2"/><path d="M24.8135023,36.0623287 C29.3405023,36.0623287 33.0105023,32.7143287 33.0105023,28.5833287 C33.0105023,24.4533287 29.3405023,21.1043287 24.8135023,21.1043287 C20.2865023,21.1043287 16.6165023,24.4533287 16.6165023,28.5833287 C16.6165023,32.7143287 20.2865023,36.0623287 24.8135023,36.0623287 Z" id="Fill-10" fill="#090E2B" blush:i="0.5.0.3.0.0.3"/></g><g id="eye2" transform="translate(81.203378, 15.000183)" blush:i="0.5.0.3.0.1"><path d="M23.2557812,1.861246 C26.6096324,3.34897691 31.0744206,8.28711729 27.357522,8.28711729 C23.6406234,8.28711729 15.5900245,7.23270759 10.1930245,9.45970759 C8.30802454,9.94170759 6.87752199,10.8641173 4.98452199,11.0891173 C0.67652199,11.9281173 -1.66408888,6.76839233 1.38185604,3.64904337 C4.82290212,0.125071736 16.4397812,-1.545754 23.2557812,1.861246 Z" id="Fill-4" fill="#090E2B" blush:i="0.5.0.3.0.1.0"/><path d="M19.455322,34.2343173 C24.826322,32.9853173 28.843322,28.1153173 28.389322,24.4763173 C27.503322,19.6543173 18.218322,16.5753173 13.017322,19.2083173 C7.86632199,21.8153173 4.64332199,27.6403173 5.05932199,29.9403173 C5.66032199,31.5323173 13.966322,35.5113173 19.455322,34.2343173 Z" id="Fill-12" fill="#FFF" blush:i="0.5.0.3.0.1.1"/><path d="M15.011222,31.6060173 C18.549222,31.6060173 21.417222,28.8520173 21.417222,25.4560173 C21.417222,22.0590173 19.396222,18.8490173 15.011222,19.3060173 C11.492222,19.6720173 8.60422199,22.0590173 8.60422199,25.4560173 C8.60422199,28.8520173 11.473222,31.6060173 15.011222,31.6060173 Z" id="Fill-14" fill="#090E2B" blush:i="0.5.0.3.0.1.2"/><path d="M5.25072199,26.6376173 C7.27972199,19.0636173 16.440722,15.1686173 23.685722,18.7546173 C24.705722,19.2866173 26.361722,20.4806173 27.601722,21.9226173 C28.742722,23.2526173 28.593722,23.9496173 28.127722,23.8116173 C27.355722,23.5816173 25.722722,22.1166173 24.395722,21.4866173 C17.685722,18.3036173 10.704722,20.0896173 5.59372199,27.5586173 C5.34272199,27.9456173 5.10472199,27.0746173 5.25072199,26.6376173" id="Fill-22" fill="#090E2B" blush:i="0.5.0.3.0.1.3"/></g><path d="M86.9879908,70.3386563 C86.0131141,75.2575144 79.9689699,75.7359636 76.0323155,74.6212963 C72.832522,73.7152719 72.0034674,71.851321 73.0853454,71.2537752 C74.8485675,70.2799076 80.4997296,72.9889887 82.5858367,70.4027854 C86.305606,65.7912866 74.8914605,48.8346319 78.5177277,51.5592059 C83.3102149,55.1600121 87.6386051,67.0559034 86.9879908,70.3386563 Z" id="nose" fill="#090E2B" blush:i="0.5.0.3.0.2"/><path d="M89.6387968,90.5818454 C88.8707672,91.1602445 87.0677709,93.5463983 85.244688,95.0617056 C81.1444698,98.4697185 74.4745751,99.2530639 70.5444286,98.4697185 C63.1559339,96.997065 59.9595527,92.178225 58.0067117,90.8585998 C56.0538707,89.5389745 59.7200172,87.8442758 62.5249361,88.0931395 C65.3298551,88.3420033 67.2123883,89.156182 72.5654423,91.4592717 C76.0199316,92.9455259 83.8310598,90.8585998 86.0381944,89.5389745 C90.2484115,87.021725 91.5113061,89.1716685 89.6387968,90.5818454 Z" id="Fill-18" fill="#090E2B" blush:i="0.5.0.3.0.3"/></g></g><g id="Facial Accesories" transform="translate(459.000000, 529.000000) scale(1 1)" fill="#000" blush:width="120" blush:height="110" blush:component="Facial Accesories" blush:i="0.5.0.4" blush:value="None" blush:viewBox="210 192.5 0 0"><g id="Facial Accesories/None" stroke="none" stroke-width="1" fill="none" fill-rule="evenodd" fill-opacity="0" blush:viewBox="210 192.5 0 0" blush:i="0.5.0.4.0"/></g><g id="Glass" transform="translate(462.000000, 484.000000) scale(1 1)" fill="#000" blush:width="120" blush:height="75" blush:component="Glass" blush:i="0.5.0.5" blush:value="None" blush:viewBox="210 131.25 0 0"><g id="Glass/None" stroke="none" stroke-width="1" fill="none" fill-rule="evenodd" fill-opacity="0" blush:viewBox="210 131.25 0 0" blush:i="0.5.0.5.0"/></g></g></g></g></svg>